<?xml version="1.0" standalone="no"?><!DOCTYPE svg PUBLIC "-//W3C//DTD SVG 1.1//EN" "http://www.w3.org/Graphics/SVG/1.1/DTD/svg11.dtd"><svg t="1589935729925" class="icon" viewBox="0 0 1024 1024" version="1.1" xmlns="http://www.w3.org/2000/svg" p-id="2742" xmlns:xlink="http://www.w3.org/1999/xlink" width="200" height="200"><defs><style type="text/css"></style></defs><path d="M552.957831 353.264743m-184.312796 0a180.115 180.115 0 1 0 368.625592 0 180.115 180.115 0 1 0-368.625592 0Z" p-id="2743"></path><path d="M563.198056 609.253998c-192.276165 0-348.145142 110.025882-348.145142 245.750053l696.291306 0C911.343197 719.27988 755.473197 609.253998 563.198056 609.253998z" p-id="2744"></path><path d="M235.531318 593.895195l0-61.437258 72.814376 0c5.027503 0 9.102309-9.169847 9.102309-20.479427 0-11.310603-4.074805-20.479427-9.102309-20.479427l-72.814376 0 0-61.437258c0-12.925381-9.168824-20.479427-20.479427-20.479427s-20.479427 7.553023-20.479427 20.479427l0 61.437258-72.814376 0c-5.027503 0-9.102309 9.168824-9.102309 20.479427 0 11.30958 4.074805 20.479427 9.102309 20.479427l72.814376 0 0 61.437258c0 12.925381 9.168824 20.479427 20.479427 20.479427S235.531318 606.820576 235.531318 593.895195z" p-id="2745"></path></svg>